# File created by Blade
# Date/Time:  Tue Sep 30 19:10:59 2014
#---------------------------------------------------------
:version 1.10
:name HOM
:units
  mass 1.0
  length 1.000000
  angle deg
:documentation
     Acclaim Skeleton File
:root
   axis xyz
   order TX TY TZ RX RY RZ
   position 0.000000 0.000000 0.000000
   orientation 0 0 0
:bonedata
   begin
      id 1
      name Spine_dum
      direction 0.000000 1.000000 0.000000
      length 7.508948
      axis 0.0 0.0 0.0 xyz
   end
   begin
      id 2
      name LeftUpLeg_dum
      direction 1.000000 0.000000 0.000000
      length 3.000560
      axis 0.0 0.0 0.0 xyz
   end
   begin
      id 3
      name RightUpLeg_dum
      direction -1.000000 0.000000 0.000000
      length 3.000560
      axis 0.0 0.0 0.0 xyz
   end
   begin
      id 4
      name Spine
      direction 0.000000 1.000000 0.000000
      length 0.000000
      axis 0.0 0.0 0.0 xyz
      dof rx ry rz
   end
   begin
      id 5
      name Spine_dum1
      direction 0.000000 1.000000 0.000000
      length 13.861154
      axis 0.0 0.0 0.0 xyz
   end
   begin
      id 6
      name Spine_dum2
      direction 0.000000 1.000000 0.000000
      length 8.204781
      axis 0.0 0.0 0.0 xyz
   end
   begin
      id 7
      name Spine_dum3
      direction 0.000000 1.000000 0.000000
      length 8.204781
      axis 0.0 0.0 0.0 xyz
   end
   begin
      id 8
      name Head
      direction 0.000000 1.000000 0.000000
      length 4.527550
      axis 0.0 0.0 0.0 xyz
      dof rx ry rz
   end
   begin
      id 9
      name LeftShoulder
      direction 1.000000 0.000000 0.000000
      length 6.635956
      axis 0.0 0.0 -90.0 xyz
      dof rx ry rz
   end
   begin
      id 10
      name LeftArm
      direction 1.000000 0.000000 0.000000
      length 10.274218
      axis 0.0 0.0 -90.0 xyz
      dof rx ry rz
   end
   begin
      id 11
      name LeftForeArm
      direction 1.000000 0.000000 0.000000
      length 8.522147
      axis 0.0 0.0 -90.0 xyz
      dof ry rz rx
   end
   begin
      id 12
      name LeftHand
      direction 0.000000 0.000000 0.000000
      length 0.000000
      axis 0.0 0.0 -90.0 xyz
      dof rx ry rz
   end
   begin
      id 13
      name LeftHand_dum1
      direction 0.000000 0.000000 0.000000
      length 0.000000
      axis 0.0 0.0 -90.0 xyz
   end
   begin
      id 14
      name LeftHand_dum2
      direction 1.000000 0.000000 0.000000
      length 3.937000
      axis 0.0 0.0 -90.0 xyz
   end
   begin
      id 15
      name LeftHandThumb1
      direction 0.000000 0.000000 1.000000
      length 3.937000
      axis 0.0 0.0 -90.0 xyz
      dof rx rz ry
   end
   begin
      id 16
      name RightShoulder
      direction -1.000000 0.000000 0.000000
      length 6.635956
      axis 0.0 0.0 90.0 xyz
      dof rx ry rz
   end
   begin
      id 17
      name RightArm
      direction -1.000000 0.000000 0.000000
      length 10.274218
      axis 0.0 0.0 90.0 xyz
      dof rx ry rz
   end
   begin
      id 18
      name RightForeArm
      direction -1.000000 0.000000 0.000000
      length 8.522147
      axis 0.0 0.0 90.0 xyz
      dof ry rz rx
   end
   begin
      id 19
      name RightHand
      direction 0.000000 0.000000 0.000000
      length 0.000000
      axis 0.0 0.0 90.0 xyz
      dof rx ry rz
   end
   begin
      id 20
      name RightHand_dum1
      direction 0.000000 0.000000 0.000000
      length 0.000000
      axis 0.0 0.0 90.0 xyz
   end
   begin
      id 21
      name RightHand_dum2
      direction -1.000000 0.000000 0.000000
      length 3.937000
      axis 0.0 0.0 90.0 xyz
   end
   begin
      id 22
      name RightHandThumb1
      direction 0.000000 0.000000 1.000000
      length 3.937000
      axis 0.0 0.0 90.0 xyz
      dof rx rz ry
   end
   begin
      id 23
      name LeftUpLeg
      direction 0.000000 -1.000000 0.000000
      length 16.490845
      axis 0.0 0.0 0.0 xyz
      dof rx ry rz
   end
   begin
      id 24
      name LeftLeg
      direction 0.000000 -1.000000 0.000000
      length 14.556576
      axis 0.0 0.0 0.0 xyz
      dof rx ry rz
   end
   begin
      id 25
      name LeftFoot
      direction 0.000000 -0.258819 0.965926
      length 4.831116
      axis 15.0 0.0 0.0 xyz
      dof rx ry rz
   end
   begin
      id 26
      name LeftToeBase
      direction 0.000000 0.000000 1.000000
      length 2.952750
      axis 0.0 0.0 0.0 xyz
      dof rx ry rz
   end
   begin
      id 27
      name RightUpLeg
      direction 0.000000 -1.000000 0.000000
      length 16.490845
      axis 0.0 0.0 0.0 xyz
      dof rx ry rz
   end
   begin
      id 28
      name RightLeg
      direction 0.000000 -1.000000 0.000000
      length 14.556576
      axis 0.0 0.0 0.0 xyz
      dof rx ry rz
   end
   begin
      id 29
      name RightFoot
      direction 0.000000 -0.258819 0.965926
      length 4.831116
      axis 15.0 0.0 0.0 xyz
      dof rx ry rz
   end
   begin
      id 30
      name RightToeBase
      direction 0.000000 0.000000 1.000000
      length 2.952750
      axis 0.0 0.0 0.0 xyz
      dof rx ry rz
   end
:hierarchy
   begin
      root Spine_dum LeftUpLeg_dum RightUpLeg_dum
      Spine_dum Spine
      LeftUpLeg_dum LeftUpLeg
      RightUpLeg_dum RightUpLeg
      Spine Spine_dum1 Spine_dum2 Spine_dum3
      Spine_dum1 Head
      Spine_dum2 LeftShoulder
      Spine_dum3 RightShoulder
      LeftShoulder LeftArm
      LeftArm LeftForeArm
      LeftForeArm LeftHand
      LeftHand LeftHand_dum1 LeftHand_dum2
      LeftHand_dum1 LeftHandThumb1
      RightShoulder RightArm
      RightArm RightForeArm
      RightForeArm RightHand
      RightHand RightHand_dum1 RightHand_dum2
      RightHand_dum1 RightHandThumb1
      LeftUpLeg LeftLeg
      LeftLeg LeftFoot
      LeftFoot LeftToeBase
      RightUpLeg RightLeg
      RightLeg RightFoot
      RightFoot RightToeBase
   end

# File created by Blade
# Date/Time:  Wed Sep 24 20:21:23 2014
# Frame Rate: 120.000 fps
#------------------------------------------------------
:FULLY-SPECIFIED
:DEGREES
43
root -3.472370 32.693653 -4.165630 12.449651 3.497465 -1.857440
Spine -13.628499 4.701766 2.476638
Head -8.394693 -8.203668 8.910735
LeftShoulder -12.978471 19.998322 26.436228
LeftArm 20.428690 -22.130705 -31.793408
LeftForeArm 9.807858 -0.000000 13.936607
LeftHand -26.873518 -0.000000 -2.808783
LeftHandThumb1 -26.253704 0.000000 33.147579
RightShoulder -18.567769 11.913216 -38.579193
RightArm -12.244079 6.132319 35.722217
RightForeArm -29.478544 -0.000000 17.471183
RightHand -10.919821 -0.000000 8.425125
RightHandThumb1 -24.326973 -0.000000 -32.862282
LeftUpLeg -5.607572 8.414649 2.276092
LeftLeg -1.772497 -0.000000 0.000000
LeftFoot -14.077360 10.847765 -16.702610
LeftToeBase 7.252082 -0.000000 -0.000000
RightUpLeg -8.884439 -6.101392 1.483000
RightLeg 3.351837 -0.000000 -0.000000
RightFoot -10.693909 -6.740697 -5.434956
RightToeBase 0.163822 -0.000000 -0.000000
44
root -3.477944 32.694794 -4.173466 12.459135 3.470118 -1.859471
Spine -13.598051 4.715440 2.499097
Head -8.445726 -8.225178 8.908571
LeftShoulder -12.978162 19.955606 26.397608
LeftArm 20.445503 -22.082000 -31.779717
LeftForeArm 9.758447 -0.000000 13.910168
LeftHand -26.867449 0.000000 -2.708532
LeftHandThumb1 -26.253704 0.000000 33.147579
RightShoulder -18.572316 11.890928 -38.544111
RightArm -12.219296 6.143788 35.724594
RightForeArm -29.425861 -0.000000 17.492959
RightHand -10.707892 -0.000000 8.274431
RightHandThumb1 -24.326973 -0.000000 -32.862282
LeftUpLeg -5.635454 8.485538 2.275778
LeftLeg -1.759866 -0.000000 0.000000
LeftFoot -14.050397 10.792249 -16.764053
LeftToeBase 7.179670 -0.000000 -0.000000
RightUpLeg -8.947333 -6.058645 1.490965
RightLeg 3.431475 -0.000000 -0.000000
RightFoot -10.710023 -6.764676 -5.433053
RightToeBase 0.189328 -0.000000 -0.000000
45
root -3.485325 32.695840 -4.181949 12.476880 3.450053 -1.868204
Spine -13.572363 4.734766 2.527870
Head -8.495010 -8.228811 8.929687
LeftShoulder -12.972269 19.916590 26.372535
LeftArm 20.465070 -22.152172 -31.838897
LeftForeArm 9.615496 -0.000000 14.002857
LeftHand -27.045580 -0.000000 -2.857813
LeftHandThumb1 -26.253704 0.000000 33.147579
RightShoulder -18.600481 11.887112 -38.545781
RightArm -12.213277 6.247166 35.752875
RightForeArm -29.516189 -0.000000 17.523448
RightHand -10.854766 -0.000000 8.326101
RightHandThumb1 -24.326973 -0.000000 -32.862282
LeftUpLeg -5.686620 8.571395 2.280506
LeftLeg -1.716304 -0.000000 0.000000
LeftFoot -14.053978 10.734382 -16.823059
LeftToeBase 7.174281 -0.000000 -0.000000
RightUpLeg -9.037519 -5.991122 1.499785
RightLeg 3.550899 -0.000000 -0.000000
RightFoot -10.752282 -6.767321 -5.370327
RightToeBase 0.179576 -0.000000 -0.000000
46
root -3.491644 32.696841 -4.189008 12.483735 3.422515 -1.874001
Spine -13.537655 4.736067 2.571394
Head -8.550777 -8.211665 8.895828
LeftShoulder -12.979183 19.885258 26.309661
LeftArm 20.479289 -22.194589 -31.866696
LeftForeArm 9.517067 -0.000000 14.042092
LeftHand -27.035784 -0.000000 -2.903117
LeftHandThumb1 -26.253704 0.000000 33.147579
RightShoulder -18.587713 11.900766 -38.526515
RightArm -12.226935 6.237853 35.759039
RightForeArm -29.466563 0.000000 17.587448
RightHand -10.932089 -0.000000 8.370861
RightHandThumb1 -24.326973 -0.000000 -32.862282
LeftUpLeg -5.709331 8.663468 2.284182
LeftLeg -1.710074 -0.000000 0.000000
LeftFoot -14.027002 10.670989 -16.847418
LeftToeBase 7.203693 -0.000000 -0.000000
RightUpLeg -9.096215 -5.950998 1.511229
RightLeg 3.630822 -0.000000 -0.000000
RightFoot -10.794199 -6.763127 -5.377990
RightToeBase 0.253882 -0.000000 -0.000000
47
root -3.499311 32.698293 -4.197285 12.492687 3.388078 -1.871965
Spine -13.498241 4.741897 2.598074
Head -8.606806 -8.188277 8.861504
LeftShoulder -12.977142 19.806899 26.248604
LeftArm 20.493599 -22.309864 -31.921486
LeftForeArm 9.499817 -0.000000 14.055782
LeftHand -26.786941 -0.000000 -2.965450
LeftHandThumb1 -26.253704 0.000000 33.147579
RightShoulder -18.606278 11.934620 -38.468476
RightArm -12.143738 6.149012 35.761143
RightForeArm -29.352591 -0.000000 17.535804
RightHand -10.819485 0.000000 8.028197
RightHandThumb1 -24.326973 -0.000000 -32.862282
LeftUpLeg -5.746466 8.756066 2.278979
LeftLeg -1.674613 -0.000000 0.000000
LeftFoot -14.014258 10.619259 -16.898602
LeftToeBase 7.172824 -0.000000 -0.000000
RightUpLeg -9.171874 -5.905566 1.518232
RightLeg 3.729544 -0.000000 -0.000000
RightFoot -10.822679 -6.794320 -5.371122
RightToeBase 0.289036 -0.000000 -0.000000
